# xmcd CD database file
#
# Track frame offsets:
#	150
#	21240
#	47388
#	65079
#	83335
#	106159
#	120966
#	140823
#	158223
#	176055
#	201543
#
# Disc length: 2943 seconds
#
# Revision: 0
# Processed by: cddbd v1.5.2PL0 Copyright (c) Steve Scherf et al.
# Submitted via: CDex 1.51
#
DISCID=910b7d0b
DTITLE=Corciolli - Lightwalk
DYEAR=2009
DGENRE=New Age
TTITLE0=Miragea
TTITLE1=Amethysios
TTITLE2=Star
TTITLE3=Pegasus
TTITLE4=Lightwalk
TTITLE5=Firefly
TTITLE6=River
TTITLE7=Talisman
TTITLE8=Dreams
TTITLE9=Supernova
TTITLE10=Air
EXTD=YEAR: 2009
EXTT0=
EXTT1=
EXTT2=
EXTT3=
EXTT4=
EXTT5=
EXTT6=
EXTT7=
EXTT8=
EXTT9=
EXTT10=
PLAYORDER=
